<?xml version="1.0" encoding="UTF-8" standalone="no"?>
<svg
   xmlns:dc="http://purl.org/dc/elements/1.1/"
   xmlns:cc="http://creativecommons.org/ns#"
   xmlns:rdf="http://www.w3.org/1999/02/22-rdf-syntax-ns#"
   xmlns:svg="http://www.w3.org/2000/svg"
   xmlns="http://www.w3.org/2000/svg"
   xmlns:sodipodi="http://sodipodi.sourceforge.net/DTD/sodipodi-0.dtd"
   xmlns:inkscape="http://www.inkscape.org/namespaces/inkscape"
   id="Layer_1"
   data-name="Layer 1"
   viewBox="0 0 480 480.00001"
   version="1.1"
   sodipodi:docname="MSF-favicon.svg"
   inkscape:version="1.0.2 (e86c8708, 2021-01-15)"
   width="480"
   height="480">
  <metadata
     id="metadata940">
    <rdf:RDF>
      <cc:Work
         rdf:about="">
        <dc:format>image/svg+xml</dc:format>
        <dc:type
           rdf:resource="http://purl.org/dc/dcmitype/StillImage" />
        <dc:title></dc:title>
      </cc:Work>
    </rdf:RDF>
  </metadata>
  <sodipodi:namedview
     pagecolor="#ffffff"
     bordercolor="#666666"
     borderopacity="1"
     objecttolerance="10"
     gridtolerance="10"
     guidetolerance="10"
     inkscape:pageopacity="0"
     inkscape:pageshadow="2"
     inkscape:window-width="1440"
     inkscape:window-height="847"
     id="namedview938"
     showgrid="false"
     inkscape:zoom="1.0786635"
     inkscape:cx="241.32865"
     inkscape:cy="231.35723"
     inkscape:window-x="0"
     inkscape:window-y="25"
     inkscape:window-maximized="1"
     inkscape:current-layer="Layer_1" />
  <defs
     id="defs835">
    <style
       id="style833">.cls-1{fill:#fff;}.cls-2{fill:#e00;}</style>
  </defs>
  <g
     id="g968"
     transform="matrix(4.9179798,0,0,4.9179798,5.0454883,50.820253)"
     style="stroke-width:0.203335">
    <path
       class="cls-2"
       d="m 58.27,153.37 c 0.71,-0.45 2.31,-1.35 2.5,-1.48 0.19,-0.13 0.49,-0.17 0.5,-0.06 0,0.38 0,1.19 0.49,1.36 0.13,0.05 0.48,-0.13 0.54,0 0.17,0.27 0.18,0.22 0.22,0.3 0.04,0.08 0.29,0 0.34,0.09 0.05,0.09 0,0.29 0.06,0.37 0.06,0.08 0.35,-0.08 0.46,-0.06 a 0.36,0.36 0 0 1 0.22,0.45 c -0.05,0.26 0.1,0.46 0.5,0.11 0.21,-0.19 0.22,-0.09 0.41,-0.19 a 0.36,0.36 0 0 1 0.36,0 1.34,1.34 0 0 0 0.31,0.27 c 0.17,0.07 0.35,0 0.45,0 0.1,0 0.16,0.31 0.3,0.33 0.14,0.02 0.26,-0.25 0.35,-0.17 0.24,0.24 -0.2,0.66 0.1,0.75 0.3,0.09 0.24,-0.09 0.37,-0.11 0.13,-0.02 0.21,-0.19 0.33,-0.19 0.12,0 0.2,0.14 0.34,0.06 l 0.32,-0.19 c 0.16,-0.1 0.33,-0.05 0.43,-0.13 0.1,-0.08 0,-0.37 0.36,-0.3 0.36,0.07 -0.06,0.4 0.09,0.54 0.15,0.14 0.41,0 0.5,0 a 0.86,0.86 0 0 0 0.42,-0.48 10,10 0 0 1 0.46,-1.04 c 0.11,-0.18 0.4,-0.89 0.55,-1.14 0.15,-0.25 0.76,-1.28 0.82,-1.44 0.06,-0.16 0.28,-0.38 0.33,-0.5 0.05,-0.12 0.18,-0.53 0.34,-0.86 0.16,-0.33 0.57,-1 0.61,-1.09 0.04,-0.09 0.36,-0.91 0.47,-1.16 0.11,-0.25 0.52,-0.8 0.62,-1.06 0.1,-0.26 0.36,-0.82 0.36,-0.82 l 0.28,-0.51 0.23,-0.52 c 0.14,-0.31 0.54,-1 0.65,-1.18 a 6.84,6.84 0 0 1 0.44,-0.69 L 76,142 l 0.19,-0.44 a 5.39,5.39 0 0 1 0.23,-0.67 c 0.07,-0.15 0.34,-0.49 0.42,-0.67 0.08,-0.18 0.3,-1 0.42,-1.24 0.12,-0.24 0.66,-1.3 0.72,-1.5 0.06,-0.2 0.63,-1.3 0.69,-1.52 a 3.35,3.35 0 0 1 0.15,-0.67 c 0.08,-0.14 0.3,-0.51 0.34,-0.61 l 0.48,-1.22 c 0.06,-0.14 0.09,-0.4 0.25,-0.4 0.16,0 0.26,0.17 0.36,0.32 0.1,0.15 0.34,0.15 0.48,0.29 a 6.1,6.1 0 0 1 0.59,0.73 c 0,0.08 0.26,0.1 0.32,0.18 0.06,0.08 0.1,0.29 0.17,0.32 a 2.68,2.68 0 0 1 0.54,0.45 2.42,2.42 0 0 0 0.26,0.45 c 0.1,0.08 0.54,0.36 0.59,0.48 0.05,0.12 0.69,0.94 0.77,1.08 0.08,0.14 0.13,0.38 0.19,0.48 0.06,0.1 0.28,0.25 0.3,0.35 a 2.84,2.84 0 0 0 0.1,0.57 c 0.06,0.1 0.32,0.22 0.36,0.32 a 4.89,4.89 0 0 0 0.21,0.55 1.1,1.1 0 0 1 0.21,0.22 c 0,0.08 0.08,0.53 0.14,0.61 0.06,0.08 0.24,0.43 0.3,0.57 0.06,0.14 0.25,0.4 0.29,0.5 0.04,0.1 0,0.51 0.09,0.65 0.09,0.14 0.21,0.45 0.23,0.53 0.02,0.08 0.06,0.33 0.06,0.33 l 0.15,0.38 a 2.18,2.18 0 0 1 0.17,0.53 2.12,2.12 0 0 0 0.06,0.4 c 0,0.11 0.17,0.37 0.17,0.45 a 4,4 0 0 0 0.21,0.55 2,2 0 0 0 0,0.5 2.58,2.58 0 0 1 0.21,0.49 2.81,2.81 0 0 1 -0.06,0.37 l 0.1,0.16 a 0.65,0.65 0 0 0 0,0.3 c 0,0.08 0,0.27 0,0.33 a 3,3 0 0 1 0.21,0.49 c -0.12,0.14 -8.07,4.05 -11.48,5.74 -4.92,2.44 -15.13,7.89 -16.22,8.55 -1.09,0.66 -1.77,1.06 -2,0.91 a 5.56,5.56 0 0 1 -2.32,-3.19 9.72,9.72 0 0 1 -0.52,-3.77 1.35,1.35 0 0 1 0.76,-1.4 c 0.26,-0.17 1.66,-1 2.38,-1.45"
       transform="translate(-32,-86.34)"
       id="path883"
       style="stroke-width:0.203335" />
    <path
       class="cls-2"
       d="m 44.12,123.42 c 0,0.09 0.21,0.07 0.33,0.1 0.12,0.03 0.19,0.15 0.27,0.16 0.08,0.01 0.19,0 0.23,0 0.04,0 0.1,0.23 0.18,0.36 0.08,0.13 0.11,0.32 0.23,0.36 0.12,0.04 0.27,0 0.3,0.14 0.03,0.14 0,0.31 0,0.47 0.22,0.4 0,1.52 0.22,1.6 a 1.4,1.4 0 0 0 1,-0.3 4.88,4.88 0 0 1 0.65,-0.61 8.32,8.32 0 0 1 1.15,-0.53 c 0.27,-0.06 0.41,-0.54 0.68,-0.57 0.27,-0.03 0.18,-0.25 0.37,-0.33 0.19,-0.08 0.55,-0.29 0.66,-0.17 a 0.88,0.88 0 0 0 0.33,0.28 c 0.21,0.09 0.44,0 0.47,0.22 0.03,0.22 0.58,0 0.58,0 a 9.25,9.25 0 0 1 0.9,-0.55 l 1,-0.52 0.8,-0.43 c 8.59,-4.38 15.36,-6.8 21.58,-9.36 9.69,-4 26.45,-8.57 29.64,-9.41 0.33,-0.09 1.08,-0.21 1.17,-0.27 a 0.55,0.55 0 0 0 0.32,-0.42 c 0.07,-0.33 -0.16,-0.77 -0.16,-0.93 0,-0.16 0.35,-0.81 0.39,-1.1 a 0.28,0.28 0 0 0 -0.23,-0.32 2.12,2.12 0 0 0 0,-0.61 c -0.07,-0.26 -0.5,-0.49 -0.57,-0.69 -0.07,-0.2 0,-0.81 -0.08,-1 a 0.89,0.89 0 0 0 -0.31,-0.36 0.36,0.36 0 0 0 0,-0.28 0.22,0.22 0 0 0 -0.22,-0.17 2.85,2.85 0 0 0 0,-0.52 0.55,0.55 0 0 0 -0.23,-0.25 c 0,0 -0.23,-0.16 -0.23,-0.32 a 0.41,0.41 0 0 0 -0.16,-0.37 c -0.11,-0.08 -0.45,-0.08 -0.57,-0.12 a 1.23,1.23 0 0 0 -0.57,-0.08 4.89,4.89 0 0 1 -0.8,0.33 4.59,4.59 0 0 1 -1,0 c -0.23,0 -0.5,0.21 -0.77,0.28 -2.59,0.72 -14.49,4.4 -23.26,7.91 a 239.7,239.7 0 0 0 -23.8,11.23 c -4.48,2.48 -6.88,3.91 -7.87,4.57 a 5.1,5.1 0 0 0 -1.16,0.89 c -0.14,0.24 -0.29,0.62 -0.59,0.66 -0.3,0.04 -0.31,0.27 -0.42,0.3 a 1.11,1.11 0 0 0 -0.4,0.3 0.34,0.34 0 0 0 0,0.37"
       transform="translate(-32,-86.34)"
       id="path885"
       style="stroke-width:0.203335" />
    <path
       class="cls-2"
       d="m 81.16,117.76 c -0.39,-0.25 -0.26,-0.49 0.2,-0.7 2.84,-1.29 10,-4 14.11,-5.39 3.51,-1.19 13.2,-4.54 15.9,-5.37 0.65,-0.19 0.91,-0.19 1.2,0.14 a 14.66,14.66 0 0 1 2.11,3.32 18.9,18.9 0 0 1 1.37,4.28 c 0.15,0.84 -0.22,1 -0.65,1.2 -3,1.42 -10.4,4.87 -13.47,6.41 -3.07,1.54 -8.51,4.35 -10.37,5.35 -0.79,0.42 -0.66,0.59 -1.19,-0.06 a 5.46,5.46 0 0 1 -0.5,-0.77 c -0.08,-0.12 -1.11,-1.09 -1.22,-1.21 -0.11,-0.12 -0.69,-0.85 -0.84,-1 -0.15,-0.15 -0.65,-0.85 -0.8,-0.93 a 2.3,2.3 0 0 1 -0.52,-0.33 c -0.12,-0.12 -0.32,-0.38 -0.43,-0.46 a 3.59,3.59 0 0 1 -0.38,-0.36 l -0.35,-0.35 -0.3,-0.37 a 1.76,1.76 0 0 0 -0.46,-0.44 1.71,1.71 0 0 1 -0.54,-0.53 5.84,5.84 0 0 0 -1,-1.13 c -0.3,-0.2 -1,-0.71 -1.19,-0.83 -0.19,-0.12 -0.36,-0.25 -0.69,-0.46"
       transform="translate(-32,-86.34)"
       id="path887"
       style="stroke-width:0.203335" />
    <path
       class="cls-2"
       d="m 92.08,128.87 c -0.29,-0.31 0.08,-0.36 0.42,-0.5 1.25,-0.51 8.72,-3 15.22,-4.81 6.5,-1.81 15.85,-3.88 17.24,-4.18 a 0.82,0.82 0 0 1 1.1,0.48 16.49,16.49 0 0 1 1.34,4.14 11.46,11.46 0 0 1 -0.15,4.54 c -0.14,0.4 -0.67,0.43 -1.94,0.8 -0.75,0.22 -4,1.1 -5.31,1.51 -1.52,0.47 -5.57,1.71 -7.06,2.25 -1.84,0.67 -4.26,1.52 -4.26,1.52 l -12.86,0.23 a 4,4 0 0 0 -0.31,-1 c -0.11,-0.08 -0.3,-0.53 -0.42,-0.65 a 2.52,2.52 0 0 1 -0.26,-0.57 1.81,1.81 0 0 0 -0.23,-0.57 c -0.12,-0.08 -0.39,-0.78 -0.51,-0.86 a 3.49,3.49 0 0 1 -0.48,-0.6 2.39,2.39 0 0 0 -0.37,-0.52 6.09,6.09 0 0 0 -0.59,-0.57 c -0.15,-0.08 -0.28,-0.33 -0.57,-0.64"
       transform="translate(-32,-86.34)"
       id="path889"
       style="stroke-width:0.203335" />
    <path
       class="cls-2"
       d="m 76.53,102.52 c -0.37,0 -0.69,0 -0.77,-0.11 -0.08,-0.11 0,-0.17 -0.09,-0.26 a 0.3,0.3 0 0 0 -0.33,0 0.49,0.49 0 0 1 -0.17,0.09 c -0.13,0 -0.61,-0.14 -0.79,-0.08 a 1.21,1.21 0 0 1 -0.65,0 c -0.13,-0.07 -0.15,-0.42 -0.36,-0.52 a 1.6,1.6 0 0 1 -0.59,-0.47 c -0.11,-0.21 -0.41,-0.53 -0.48,-0.68 L 72.09,99.97 A 2,2 0 0 0 71.87,99.5 3.13,3.13 0 0 0 71.62,99.24 c -0.07,-0.09 -0.13,-0.38 -0.21,-0.5 -0.08,-0.12 -0.13,-0.2 -0.17,-0.29 a 3,3 0 0 1 -0.09,-0.32 c 0,-0.12 -0.17,-0.28 -0.2,-0.38 A 10,10 0 0 1 70.89,96.38 11.33,11.33 0 0 1 71,95.13 c 0,-0.22 0.16,-0.43 0.2,-0.66 0.04,-0.23 0.32,-1 0.39,-1.32 a 10.69,10.69 0 0 1 0.33,-1.23 8.73,8.73 0 0 1 0.43,-1 c 0.11,-0.19 0.54,-0.88 0.71,-1.11 a 13.35,13.35 0 0 1 1.15,-1.21 c 0.18,-0.16 0.61,-0.49 0.75,-0.6 l 0.82,-0.59 a 0.7,0.7 0 0 1 0.34,-0.09 l 0.19,-0.2 a 1.67,1.67 0 0 1 0.2,-0.2 0.79,0.79 0 0 1 0.34,-0.07 0.78,0.78 0 0 1 0.57,-0.17 c 0.13,0 0.22,-0.21 0.33,-0.24 0.11,-0.03 0.53,-0.09 0.59,0 a 0.61,0.61 0 0 0 0.36,0.18 c 0.23,0 0.42,0 0.51,0 0.09,0 0.24,0.19 0.33,0.22 a 9.43,9.43 0 0 1 1.27,1.31 2.24,2.24 0 0 1 0.09,0.3 1.32,1.32 0 0 1 0.28,0.49 c 0.05,0.22 0.26,0.29 0.29,0.61 0.03,0.32 0.35,0.35 0.44,0.74 0,0.1 0.07,0.49 0.1,0.55 0.03,0.06 0.11,0.08 0.15,0.21 a 1.66,1.66 0 0 1 0.06,0.51 8.66,8.66 0 0 1 0.24,1.17 5.37,5.37 0 0 1 -0.19,1.08 c -0.08,0.29 0,0.83 -0.08,1.06 -0.08,0.23 -0.22,0.78 -0.25,0.94 a 14.53,14.53 0 0 1 -0.54,1.45 c -0.07,0.12 -0.32,0.64 -0.44,0.79 -0.12,0.15 -1,1.46 -1.15,1.63 -0.15,0.17 -0.55,0.48 -0.63,0.61 -0.08,0.13 -0.19,0.37 -0.3,0.56 -0.11,0.19 -0.41,0.08 -0.53,0.29 -0.12,0.21 -0.46,0.36 -0.51,0.53 a 1.38,1.38 0 0 1 -0.37,0.56 1.83,1.83 0 0 1 -0.89,0.34"
       transform="translate(-32,-86.34)"
       id="path891"
       style="stroke-width:0.203335" />
    <path
       class="cls-2"
       d="m 50.84,142.58 c 0,0 -3.76,1.35 -5.26,1.91 -1.5,0.56 -3,1.13 -4,1.59 -1.27,0.55 -3.52,1.52 -4.06,1.72 -0.84,0.32 -1.19,0.13 -1.42,-0.4 a 16.48,16.48 0 0 1 -1.1,-2.93 17.58,17.58 0 0 1 -0.43,-2.77 1.79,1.79 0 0 1 0.75,-1.38 c 0.47,-0.27 1.56,-1 2.43,-1.52 1.68,-1 7.46,-4.3 10.9,-6.19 3.64,-2 9.39,-5 12.48,-6.59 3.09,-1.59 8.16,-4.17 8.77,-4.46 a 6.06,6.06 0 0 1 1.57,-0.61 c 0.3,0 0.19,0.17 0.19,0.29 0,0.12 -0.11,0.17 -0.14,0.41 a 6.73,6.73 0 0 1 -0.09,0.77 c -0.08,0.24 -0.28,0.47 -0.32,0.63 a 2.66,2.66 0 0 1 -0.22,0.94 8.77,8.77 0 0 0 -0.81,1.86 9.46,9.46 0 0 1 -0.48,1.59 6.22,6.22 0 0 0 -0.52,1.21 8.83,8.83 0 0 1 -0.36,1.06 c -0.08,0.25 -0.53,1.15 -0.61,1.31 -0.08,0.16 -0.38,1.25 -0.46,1.41 -0.08,0.16 -0.38,0.65 -0.38,0.65 l -0.15,0.69 a 4.44,4.44 0 0 0 -0.42,0.77 7.27,7.27 0 0 1 -0.46,1.46 19.33,19.33 0 0 0 -1,2.59 c -0.15,0.61 -0.42,1.5 -0.49,1.71 -0.07,0.21 -0.5,0.93 -0.57,1.17 -0.07,0.24 -0.43,1.46 -0.54,1.71 a 5,5 0 0 0 -0.42,1.17 4.76,4.76 0 0 1 -0.42,1.22 c -0.19,0.44 -0.42,1.22 -0.53,1.5 -0.11,0.28 -0.27,0.48 -0.31,0.64 -0.04,0.16 -0.07,0.62 -0.11,0.74 -0.04,0.12 -0.12,0.32 -0.12,0.32 -0.19,0.1 -10.45,4.79 -11.9,5.52 l -12.51,6.3 c -0.64,0.32 -1.51,1 -2.13,0.58 A 8.25,8.25 0 0 1 33,158.22 11.31,11.31 0 0 1 32,154.65 c -0.09,-1.39 0.46,-1.65 2.39,-2.84 0.94,-0.58 8.43,-4.78 10.84,-6.1 l 5.6,-3.13"
       transform="translate(-32,-86.34)"
       id="path893"
       style="stroke-width:0.203335" />
  </g>
</svg>
