<?xml version="1.0" encoding="UTF-8" standalone="no"?>
<svg
   xmlns:dc="http://purl.org/dc/elements/1.1/"
   xmlns:cc="http://creativecommons.org/ns#"
   xmlns:rdf="http://www.w3.org/1999/02/22-rdf-syntax-ns#"
   xmlns:svg="http://www.w3.org/2000/svg"
   xmlns="http://www.w3.org/2000/svg"
   xmlns:sodipodi="http://sodipodi.sourceforge.net/DTD/sodipodi-0.dtd"
   xmlns:inkscape="http://www.inkscape.org/namespaces/inkscape"
   id="Layer_1"
   data-name="Layer 1"
   viewBox="0 0 160.93 160.93"
   version="1.1"
   sodipodi:docname="nobel-peace-prize-logo.svg"
   inkscape:version="1.0.2 (e86c8708, 2021-01-15)">
  <metadata
     id="metadata137">
    <rdf:RDF>
      <cc:Work
         rdf:about="">
        <dc:format>image/svg+xml</dc:format>
        <dc:type
           rdf:resource="http://purl.org/dc/dcmitype/StillImage" />
      </cc:Work>
    </rdf:RDF>
  </metadata>
  <sodipodi:namedview
     pagecolor="#ffffff"
     bordercolor="#666666"
     borderopacity="1"
     objecttolerance="10"
     gridtolerance="10"
     guidetolerance="10"
     inkscape:pageopacity="0"
     inkscape:pageshadow="2"
     inkscape:window-width="1440"
     inkscape:window-height="847"
     id="namedview135"
     showgrid="false"
     inkscape:zoom="1.3096349"
     inkscape:cx="195.39184"
     inkscape:cy="127.4455"
     inkscape:window-x="0"
     inkscape:window-y="25"
     inkscape:window-maximized="1"
     inkscape:current-layer="Layer_1"
     inkscape:document-rotation="0" />
  <defs
     id="defs12">
    <style
       id="style10">.cls-1{fill:#fff;}</style>
  </defs>
  <g
     id="g980">
    <path
       class="cls-1"
       d="M230.53,125a80.47,80.47,0,1,0-80.46,80.46A80.55,80.55,0,0,0,230.53,125"
       id="path14"
       style="stroke:none;fill:none"
       transform="translate(-69.6 -44.58)" />
    <path
       class="cls-1"
       d="M228.2,125a78.14,78.14,0,1,1-78.13-78.13A78.22,78.22,0,0,1,228.2,125"
       id="path16"
       style="stroke:none;fill:none"
       transform="translate(-69.6 -44.58)" />
    <polygon
       class="cls-1"
       points="153.4 81.29 152.71 70.51 150.21 70.67 150.44 74.33 137.98 75.13 138.18 78.19 150.64 77.39 150.87 80.96 153.4 81.29"
       id="polygon18"
       style="stroke:#ffffff;fill:#ffffff" />
    <path
       class="cls-1"
       d="M206.73,112.73l14.3-4.48-.85-2.74-5.83,1.89c-1,.33-2.78,1-3.86,1.46a28.7,28.7,0,0,0,3.57-2.83l4.86-4.53-1-3.19-14.3,4.48.87,2.78,6.08-2c1.19-.39,2.87-.94,4-1.41-.8.54-2.54,2-4.08,3.4l-4.71,4.16Z"
       transform="translate(-69.6 -44.58)"
       id="path20"
       style="stroke:#ffffff;fill:#ffffff" />
    <path
       class="cls-1"
       d="M211.56,85.85a6.55,6.55,0,0,0-2.29-2.22c-2.16-1.18-5-.81-7.73.93A8.9,8.9,0,0,0,197.79,89a5.52,5.52,0,0,0,.85,5.25,5.78,5.78,0,0,0,2.2,2.15c2.17,1.19,4.94.8,7.79-1,4-2.53,5.09-6.17,2.93-9.53"
       transform="translate(-69.6 -44.58)"
       id="path22"
       style="stroke:#ffffff;fill:#ffffff" />
    <path
       class="cls-1"
       d="M209.4,90.31a12.14,12.14,0,0,1-2.71,2.2c-3.22,2.06-5,2.17-6.17.41a3,3,0,0,1-.53-1.79c.06-1.1,1.19-2.34,3.37-3.74a8.8,8.8,0,0,1,3.85-1.57,2.6,2.6,0,0,1,2.37,1.25,2.71,2.71,0,0,1-.18,3.24"
       transform="translate(-69.6 -44.58)"
       id="path24"
       style="stroke:#ffffff;fill:#000000" />
    <path
       class="cls-1"
       d="M200.44,78.59a4.14,4.14,0,0,0-.23-6.21l-4.08-3.81-10.21,11,2.16,2L192.34,77a1.37,1.37,0,0,1,.26.42c.23.54.07,1.39-.68,4.37-.29,1.17-.4,1.64-.65,2.76L193.88,87s1.23-5.34,1.33-6.72a3.32,3.32,0,0,0,0-.88c1.38,1.23,3.74.89,5.26-.76"
       transform="translate(-69.6 -44.58)"
       id="path26"
       style="stroke:#ffffff;fill:#ffffff" />
    <path
       class="cls-1"
       d="M198.08,76.48a2,2,0,0,1-1.46.71c-.55,0-1-.3-2-1.18l-.75-.69,2.77-3,.78.74a5.59,5.59,0,0,1,1.11,1.32,1.76,1.76,0,0,1-.46,2.07"
       transform="translate(-69.6 -44.58)"
       id="path28"
       style="stroke:#ffffff;fill:#000000" />
    <polygon
       class="cls-1"
       points="119.7 21.98 121.22 20.05 114.2 15.96 106.65 28.9 109.26 30.43 112.62 24.67 115.91 26.59 117.15 24.47 113.86 22.55 115.58 19.58 119.7 21.98"
       id="polygon30"
       style="stroke:#ffffff;fill:#ffffff" />
    <path
       class="cls-1"
       d="M167.12,57.57l1.81-1.85a8.84,8.84,0,0,0-4.63-2.44c-3.11-.6-5.63.84-6.15,3.53a4.37,4.37,0,0,0,.17,2.36,4.59,4.59,0,0,0,2.54,2.43l1.54.76c1.25.61,1.74,1.33,1.56,2.28-.26,1.31-1.28,1.84-3,1.51a8.53,8.53,0,0,1-3.81-2l-1.55,2.1a10.81,10.81,0,0,0,4.76,2.31c3.66.71,6.46-.79,7-3.77.42-2.18-.59-4-2.87-5.11l-1.69-.83c-1.16-.58-1.49-1-1.34-1.8a1.86,1.86,0,0,1,2.39-1.3,6.5,6.5,0,0,1,3.21,1.8"
       transform="translate(-69.6 -44.58)"
       id="path32"
       style="stroke:#ffffff;fill:#ffffff" />
    <path
       class="cls-1"
       d="M148.66,67.33l3.14-.19-.89-15-2.87.17.44,6.11c.08,1,.3,2.94.48,4.09a29.84,29.84,0,0,0-1.89-4.14l-3.22-5.81-3.34.2.9,15,2.9-.17-.47-6.39c-.09-1.25-.22-3-.4-4.23.33.91,1.36,3,2.32,4.78Z"
       transform="translate(-69.6 -44.58)"
       id="path34"
       style="stroke:#ffffff;fill:#ffffff" />
    <polygon
       class="cls-1"
       points="65.9 24.55 68.98 23.56 59.89 10.69 56.79 11.69 56.7 27.5 59.7 26.54 59.62 22.83 63.8 21.48 65.9 24.55"
       id="polygon36"
       style="stroke:#ffffff;fill:#ffffff" />
    <path
       class="cls-1"
       d="M131.94,63.9l-2.79.9c0-1,0-1.78-.09-2.9s-.21-3-.21-3l1.39,2.34c.75,1.27,1.7,2.62,1.7,2.62"
       transform="translate(-69.6 -44.58)"
       id="path38"
       style="stroke:#ffffff;fill:#000000" />
    <path
       class="cls-1"
       d="M122.12,69c-1.16-1.89-3.12-2.54-5.57-1.82l-1.8.52c-1.25.37-1.8.25-2.21-.41a1.86,1.86,0,0,1,.89-2.57,6.48,6.48,0,0,1,3.57-.85l.09-2.58A8.82,8.82,0,0,0,112,62.6c-2.7,1.65-3.58,4.42-2.15,6.76A4.4,4.4,0,0,0,111.61,71a4.54,4.54,0,0,0,3.51.07l1.65-.48c1.33-.39,2.18-.2,2.69.63.7,1.14.3,2.22-1.17,3.12a8.43,8.43,0,0,1-4.14,1.12l.27,2.59a10.71,10.71,0,0,0,5.07-1.51c3.18-2,4.22-5,2.63-7.54"
       transform="translate(-69.6 -44.58)"
       id="path40"
       style="stroke:#ffffff;fill:#ffffff" />
    <path
       class="cls-1"
       d="M104.64,90.06c2.31-2.92,2.27-6.09-.12-8-1.74-1.38-3.8-1.31-5.85.2L97.16,83.4c-1,.76-1.61.84-2.22.36a1.85,1.85,0,0,1,0-2.71A6.46,6.46,0,0,1,98,79l-.8-2.45a8.72,8.72,0,0,0-4.29,3c-2,2.49-1.85,5.39.3,7.09a4.4,4.4,0,0,0,2.18.93,4.56,4.56,0,0,0,3.32-1.14l1.38-1c1.12-.82,2-.94,2.75-.33,1,.83,1,2,0,3.33a8.51,8.51,0,0,1-3.51,2.48l1.15,2.34a10.76,10.76,0,0,0,4.24-3.17"
       transform="translate(-69.6 -44.58)"
       id="path42"
       style="stroke:#ffffff;fill:#ffffff" />
    <path
       class="cls-1"
       d="M99.4,97,85.68,91l-1.15,2.62L90.16,96c1,.4,2.75,1.07,3.86,1.44a28.51,28.51,0,0,0-4.55-.21l-6.64.21-1.35,3.06,13.72,6,1.17-2.67-5.89-2.5c-1.16-.48-2.78-1.17-4-1.57,1,.12,3.26.14,5.32.12l6.28,0Z"
       transform="translate(-69.6 -44.58)"
       id="path44"
       style="stroke:#ffffff;fill:#ffffff" />
    <rect
       class="cls-1"
       x="84.79"
       y="103.93"
       width="3.15"
       height="14.99"
       transform="translate(-110.18 128.15) rotate(-78)"
       id="rect46"
       style="stroke:#ffffff;fill:#ffffff" />
    <path
       class="cls-1"
       d="M80.48,119.19l-2-1.41a6.16,6.16,0,0,0-1.28,3.77,6.44,6.44,0,0,0,3.33,5.82,9.62,9.62,0,0,0,4.63,1.13,7.85,7.85,0,0,0,5.41-1.68,6.85,6.85,0,0,0,.89-9l-1.93,1.33a3.92,3.92,0,0,1,.91,2.6,3.1,3.1,0,0,1-1.75,2.84,8.41,8.41,0,0,1-4,.53,7,7,0,0,1-3.84-.94,3.13,3.13,0,0,1-1.23-2.58,4,4,0,0,1,.9-2.37"
       transform="translate(-69.6 -44.58)"
       id="path48"
       style="stroke:#ffffff;fill:#ffffff" />
    <polygon
       class="cls-1"
       points="10.86 90.23 8.37 90.34 10.05 98.71 24.75 95.76 23.03 87.2 20.49 87.71 21.61 93.27 17.67 94.06 16.84 89.89 14.43 90.38 15.27 94.58 11.87 95.27 10.86 90.23"
       id="polygon50"
       style="stroke:#ffffff;fill:#ffffff" />
    <path
       class="cls-1"
       d="M84.1,151.74a5.13,5.13,0,0,0,.05,3.6c.22.57.66,1.62,1,2.4l1.29,2.73L100,154.1l-1.55-3.3c-.38-.8-.72-1.43-1-1.91A5.12,5.12,0,0,0,94,146.5a8.56,8.56,0,0,0-5.34.85c-2.44,1.14-3.89,2.57-4.54,4.39"
       transform="translate(-69.6 -44.58)"
       id="path52"
       style="stroke:#ffffff;fill:#ffffff" />
    <path
       class="cls-1"
       d="M86.85,152.76a8.42,8.42,0,0,1,3.48-2.47c2.87-1.35,4.64-1.18,5.48.62l.69,1.46-9.19,4.32-.59-1.25a2.49,2.49,0,0,1,.13-2.68"
       id="path54"
       style="stroke:#ffffff;fill:#000000;fill-opacity:1"
       transform="translate(-69.6 -44.58)" />
    <polygon
       class="cls-1"
       points="23.24 121.28 21.08 122.52 26.45 129.17 38.11 119.75 32.62 112.96 30.61 114.58 34.17 119 31.05 121.51 28.38 118.21 26.47 119.75 29.16 123.09 26.46 125.27 23.24 121.28"
       id="polygon56"
       style="stroke:#ffffff;fill:#ffffff" />
    <path
       class="cls-1"
       d="M110.43,167.59l-7.6,13,3.13,2.23,6-4.89c.7-.59,1.29-1.12,1.85-1.67a22,22,0,0,0-1,2.23l-2.74,7.25,3.14,2.24,9.83-11.4-2.44-1.74-5,6.08c-.59.72-1.14,1.41-1.65,2.13.38-.79.78-1.8,1-2.51l2.83-7.65-2.1-1.49-6.68,5.31c-.73.58-1.15,1-1.79,1.55.46-.65.86-1.29,1.36-2.1l4.18-6.84Z"
       transform="translate(-69.6 -44.58)"
       id="path58"
       style="stroke:#ffffff;fill:#ffffff" />
    <path
       class="cls-1"
       d="M150.41,178.38A53.34,53.34,0,1,0,97.08,125a53.4,53.4,0,0,0,53.33,53.34"
       transform="translate(-69.6 -44.58)"
       id="path60"
       style="stroke:none;fill:none" />
    <path
       class="cls-1"
       d="M99.41,125a51,51,0,1,1,51,51,51.06,51.06,0,0,1-51-51"
       transform="translate(-69.6 -44.58)"
       id="path62"
       style="stroke:none;fill:none" />
    <path
       class="cls-1"
       d="M121.1,109.06,121,124.5l3.11,0,0-5.68h1.71a6.45,6.45,0,0,0,3.09-.48,4.75,4.75,0,0,0,2.7-4.46,4.33,4.33,0,0,0-2.19-4c-.86-.5-1.65-.77-4.28-.79Z"
       transform="translate(-69.6 -44.58)"
       id="path64"
       style="stroke:#ffffff;fill:#ffffff" />
    <path
       class="cls-1"
       d="M124.15,116.31l0-4.71,2,0a2,2,0,0,1,2.07,2.32,2.71,2.71,0,0,1-.39,1.6c-.43.64-.81.79-2.07.78Z"
       transform="translate(-69.6 -44.58)"
       id="path66"
       style="stroke:#ffffff;fill:#000000" />
    <path
       class="cls-1"
       d="M121.34,127.79l-.14,16.54,3.33,0,.06-6.09h1.83a6.8,6.8,0,0,0,3.31-.52,5.07,5.07,0,0,0,2.9-4.78,4.66,4.66,0,0,0-2.35-4.3c-.92-.53-1.77-.83-4.58-.85Z"
       transform="translate(-69.6 -44.58)"
       id="path68"
       style="stroke:#ffffff;fill:#ffffff" />
    <path
       class="cls-1"
       d="M124.61,135.55l0-5,2.12,0A2.17,2.17,0,0,1,129,133a3,3,0,0,1-.42,1.71c-.46.69-.87.85-2.22.84Z"
       transform="translate(-69.6 -44.58)"
       id="path70"
       style="stroke:#ffffff;fill:#000000" />
    <path
       class="cls-1"
       d="M132.62,149.53l-4,2.85.69,1.49a11.57,11.57,0,0,0,2.48-1.18l0,5.34-2.23,0,0,2.25,6.54.06,0-2.25H134.4l.07-8.52Z"
       transform="translate(-69.6 -44.58)"
       id="path72"
       style="stroke:#ffffff;fill:#ffffff" />
    <path
       class="cls-1"
       d="M142.56,158.89a3.44,3.44,0,0,0,1.67-.38c-.63,1.73-3.25,3.81-5.48,4.37l1.49,1.7a15,15,0,0,0,4.39-2.5,8.61,8.61,0,0,0,3.44-6.94c0-3.5-1.8-5.64-4.87-5.67a4.77,4.77,0,0,0-5,4.78,4.43,4.43,0,0,0,4.4,4.64"
       transform="translate(-69.6 -44.58)"
       id="path74"
       style="stroke:#ffffff;fill:#ffffff" />
    <path
       class="cls-1"
       d="M143.22,156.67c-1.26,0-2.08-1-2.06-2.47s.78-2.62,2-2.61,2,1,2,2.78a5,5,0,0,1-.22,1.55,2.06,2.06,0,0,1-1.65.75"
       transform="translate(-69.6 -44.58)"
       id="path76"
       style="stroke:#ffffff;fill:#000000" />
    <polygon
       class="cls-1"
       points="75.64 80.13 78.88 80.16 80 76.5 84.53 76.54 85.59 80.22 88.92 80.25 84.19 64.72 80.83 64.69 75.64 80.13"
       id="polygon78"
       style="stroke:#ffffff;fill:#ffffff" />
    <path
       class="cls-1"
       d="M150.38,118.51c.34-1,.55-1.75.84-2.86s.76-3,.76-3,.45,2,.6,2.74c.32,1.49.82,3.11.82,3.11Z"
       transform="translate(-69.6 -44.58)"
       id="path80"
       style="stroke:#ffffff;fill:#000000" />
    <rect
       class="cls-1"
       x="144.34"
       y="134.59"
       width="16.54"
       height="3.47"
       transform="translate(-54.63 243.18) rotate(-89.51)"
       id="rect82"
       style="stroke:#ffffff;fill:#ffffff" />
    <path
       class="cls-1"
       d="M150.41,154.36a4.44,4.44,0,0,0,4.4,4.64,3.69,3.69,0,0,0,1.67-.38c-.63,1.72-3.25,3.81-5.48,4.36l1.49,1.71a15.18,15.18,0,0,0,4.39-2.5,8.68,8.68,0,0,0,3.45-6.94c0-3.51-1.81-5.65-4.89-5.67a4.76,4.76,0,0,0-5,4.78"
       transform="translate(-69.6 -44.58)"
       id="path84"
       style="stroke:#ffffff;fill:#ffffff" />
    <path
       class="cls-1"
       d="M153.4,154.3c0-1.59.79-2.61,2-2.6s2,1.05,2,2.78a4.94,4.94,0,0,1-.22,1.54,2,2,0,0,1-1.65.75c-1.26,0-2.08-1-2.07-2.47"
       transform="translate(-69.6 -44.58)"
       id="path86"
       style="stroke:#ffffff;fill:#000000" />
    <path
       class="cls-1"
       d="M167.06,159.1a3.47,3.47,0,0,0,1.67-.38c-.63,1.73-3.25,3.81-5.48,4.37l1.49,1.7a15,15,0,0,0,4.39-2.49,8.65,8.65,0,0,0,3.44-7c0-3.5-1.8-5.64-4.88-5.67a4.77,4.77,0,0,0-5,4.78,4.43,4.43,0,0,0,4.4,4.64"
       transform="translate(-69.6 -44.58)"
       id="path88"
       style="stroke:#ffffff;fill:#ffffff" />
    <path
       class="cls-1"
       d="M167.71,156.88c-1.26,0-2.07-1-2.06-2.47s.79-2.62,2-2.61,2,1,2,2.79a5.3,5.3,0,0,1-.22,1.54,2.08,2.08,0,0,1-1.66.75"
       transform="translate(-69.6 -44.58)"
       id="path90"
       style="stroke:#ffffff;fill:#000000" />
    <polygon
       class="cls-1"
       points="102.59 100.19 112.23 100.27 112.25 97.42 105.99 97.36 106.03 92.94 110.72 92.98 110.74 90.27 106.01 90.23 106.04 86.39 111.7 86.44 112.16 83.73 102.73 83.65 102.59 100.19"
       id="polygon92"
       style="stroke:#ffffff;fill:#ffffff" />
    <polygon
       class="cls-1"
       points="103.75 80.37 112.74 80.45 112.77 77.78 106.92 77.73 106.96 73.6 111.34 73.64 111.36 71.11 106.94 71.07 106.97 67.5 112.25 67.54 112.68 65.01 103.88 64.94 103.75 80.37"
       id="polygon94"
       style="stroke:#ffffff;fill:#ffffff" />
    <polygon
       class="cls-1"
       points="113.26 58.23 108.13 58.19 108.23 46.25 105.28 46.22 105.16 60.55 112.72 60.62 113.26 58.23"
       id="polygon96"
       style="stroke:#ffffff;fill:#ffffff" />
    <polygon
       class="cls-1"
       points="101.86 58.05 96.44 58 96.47 54.17 100.53 54.2 100.55 51.85 96.45 51.82 96.48 48.5 101.38 48.54 101.78 46.19 93.61 46.12 93.49 60.45 101.84 60.53 101.86 58.05"
       id="polygon98"
       style="stroke:#ffffff;fill:#ffffff" />
    <path
       class="cls-1"
       d="M166.56,109.12a6.64,6.64,0,0,0-5.94,3.52,10,10,0,0,0-1.09,4.79,8.11,8.11,0,0,0,1.82,5.55,7.07,7.07,0,0,0,9.32.77l-1.4-2a4,4,0,0,1-2.65,1,3.22,3.22,0,0,1-3-1.76,8.6,8.6,0,0,1-.61-4.14,7,7,0,0,1,.9-4,3.19,3.19,0,0,1,2.63-1.31,4.05,4.05,0,0,1,2.46.88l1.41-2.09a6.26,6.26,0,0,0-3.89-1.26"
       transform="translate(-69.6 -44.58)"
       id="path100"
       style="stroke:#ffffff;fill:#ffffff" />
    <path
       class="cls-1"
       d="M163.34,130.91a11.15,11.15,0,0,0,1.69-.1,16.51,16.51,0,0,0-1,1.49l-6.17,10,0,2.33,10.32.09L169,142l-5.57-.05c-.66,0-1.64.08-1.64.08a9.29,9.29,0,0,0,.87-1.16l6.23-10.3,0-2.4-9.9-.08-.76,2.75Z"
       transform="translate(-69.6 -44.58)"
       id="path102"
       style="stroke:#ffffff;fill:#ffffff" />
    <path
       class="cls-1"
       d="M157.17,97.37a2.76,2.76,0,0,0,1.33-.73,3.22,3.22,0,0,0,1-2.39,3.18,3.18,0,0,0-1.16-2.56,4.66,4.66,0,0,0-3.51-1.06l-4.85,0-.12,14.33,4.51,0c.79,0,1.39,0,1.84,0A3.78,3.78,0,0,0,160,101a3.58,3.58,0,0,0-2.82-3.63"
       transform="translate(-69.6 -44.58)"
       id="path104"
       style="stroke:#ffffff;fill:#ffffff" />
    <path
       class="cls-1"
       d="M156.47,94.72a1.81,1.81,0,0,1-.75,1.46,2.76,2.76,0,0,1-1.24.18l-1.71,0,0-3.28,1.67,0a2.89,2.89,0,0,1,1.19.19,1.55,1.55,0,0,1,.81,1.45"
       transform="translate(-69.6 -44.58)"
       id="path106"
       style="stroke:#ffffff;fill:#000000" />
    <path
       class="cls-1"
       d="M156.73,100.62a2.19,2.19,0,0,1-.76,1.67,2.13,2.13,0,0,1-1.34.32l-1.87,0,0-3.88,1.79,0a3.4,3.4,0,0,1,1.11.13,1.74,1.74,0,0,1,1,1.76"
       transform="translate(-69.6 -44.58)"
       id="path108"
       style="stroke:#ffffff;fill:#000000" />
    <path
       class="cls-1"
       d="M146.94,97.65c0-4.49-2.29-7.3-6.1-7.33a6.35,6.35,0,0,0-3,.68c-2.07,1.11-3.27,3.58-3.29,6.67a8.46,8.46,0,0,0,1.6,5.33,5.26,5.26,0,0,0,4.64,2.06,5.46,5.46,0,0,0,2.88-.63c2.09-1.12,3.22-3.54,3.25-6.78"
       transform="translate(-69.6 -44.58)"
       id="path110"
       style="stroke:#ffffff;fill:#ffffff" />
    <path
       class="cls-1"
       d="M143.62,97.7c0,3.66-.89,5.17-2.89,5.16a2.91,2.91,0,0,1-1.71-.51c-.86-.63-1.26-2.18-1.24-4.65a8.4,8.4,0,0,1,.76-3.91,2.5,2.5,0,0,1,2.24-1.24,2.59,2.59,0,0,1,2.5,1.83,11.62,11.62,0,0,1,.34,3.32"
       transform="translate(-69.6 -44.58)"
       id="path112"
       style="stroke:#ffffff;fill:#000000" />
    <polygon
       class="cls-1"
       points="64.85 80.04 73.84 80.11 73.86 77.45 68.02 77.4 68.06 73.27 72.43 73.31 72.45 70.77 68.04 70.74 68.07 67.16 73.35 67.21 73.77 64.68 64.98 64.6 64.85 80.04"
       id="polygon114"
       style="stroke:#ffffff;fill:#ffffff" />
    <path
       class="cls-1"
       d="M143,137.4c2.05,0,3.71-2.06,3.73-4.54A4.58,4.58,0,0,0,142,128l-6.16,0-.14,16.53,3.25,0,.06-6.9a1.43,1.43,0,0,1,.53.15c.59.26,1.08,1.08,2.7,4.07.63,1.17.89,1.62,1.52,2.72l3.93,0s-3-5.26-3.92-6.45a3,3,0,0,0-.69-.7"
       transform="translate(-69.6 -44.58)"
       id="path116"
       style="stroke:#ffffff;fill:#ffffff" />
    <path
       class="cls-1"
       d="M142.61,134.56c-.46.41-1.08.54-2.51.53H139l0-4.47h1.19a6.33,6.33,0,0,1,1.88.25,1.94,1.94,0,0,1,1.17,2,2.25,2.25,0,0,1-.65,1.66"
       transform="translate(-69.6 -44.58)"
       id="path118"
       style="stroke:#ffffff;fill:#000000" />
    <path
       class="cls-1"
       d="M131.54,104.76l.12-14.33-2.74,0v5.86c0,1,.1,2.83.19,3.94a28,28,0,0,0-1.53-4.08l-2.69-5.75-3.2,0-.12,14.33,2.78,0,0-6.13c0-1.2,0-2.89-.11-4.06.26.89,1.11,2.91,1.9,4.72l2.41,5.5Z"
       transform="translate(-69.6 -44.58)"
       id="path120"
       style="stroke:#ffffff;fill:#ffffff" />
    <path
       class="cls-1"
       d="M179.26,180.49c1.2,1.87,3.17,2.48,5.6,1.71l1.79-.56c1.24-.39,1.8-.28,2.22.37a1.86,1.86,0,0,1-.83,2.58,6.4,6.4,0,0,1-3.56.93l0,2.58a8.75,8.75,0,0,0,5-1.43c2.67-1.71,3.5-4.5,2-6.8a4.39,4.39,0,0,0-1.76-1.59,4.56,4.56,0,0,0-3.52,0l-1.64.52c-1.32.41-2.17.24-2.7-.58-.72-1.12-.34-2.21,1.11-3.14a8.44,8.44,0,0,1,4.12-1.21l-.33-2.58a10.71,10.71,0,0,0-5,1.61c-3.14,2-4.13,5-2.48,7.59"
       transform="translate(-69.6 -44.58)"
       id="path122"
       style="stroke:#ffffff;fill:#ffffff" />
    <polygon
       class="cls-1"
       points="127.3 124.56 124.34 127.61 126.11 129.32 129.09 126.24 131.59 128.65 128.01 132.34 129.51 134.33 135.45 128.2 124.69 117.76 118.61 124.03 120.47 125.83 124.42 121.76 127.3 124.56"
       id="polygon124"
       style="stroke:#ffffff;fill:#ffffff" />
    <path
       class="cls-1"
       d="M206.16,164.39a4.16,4.16,0,0,0,6-1.54l2.85-4.8-12.88-7.66-1.51,2.54,5.38,3.2a1.64,1.64,0,0,1-.36.34c-.48.34-1.34.36-4.42.26-1.2,0-1.67,0-2.82,0l-1.82,3.06s5.47.07,6.84-.13a2.69,2.69,0,0,0,.86-.21c-.91,1.61-.08,3.84,1.85,5"
       transform="translate(-69.6 -44.58)"
       id="path126"
       style="stroke:#ffffff;fill:#ffffff" />
    <path
       class="cls-1"
       d="M207.45,158.16l.52-.87,3.49,2.07-.55.92a5.55,5.55,0,0,1-1.06,1.36,1.76,1.76,0,0,1-2.13,0,2.08,2.08,0,0,1-1-1.27c-.1-.54.07-1.09.73-2.2"
       transform="translate(-69.6 -44.58)"
       id="path128"
       style="stroke:#ffffff;fill:#000000" />
    <polygon
       class="cls-1"
       points="147.86 100.4 146.34 105.3 148.57 106.4 151.11 98.25 136.79 93.8 134.2 102.14 136.68 102.91 138.36 97.49 142.19 98.68 140.93 102.74 143.27 103.47 144.55 99.37 147.86 100.4"
       id="polygon130"
       style="stroke:#ffffff;fill:#ffffff" />
    <rect
       class="cls-1"
       x="213.28"
       y="125.19"
       width="3.15"
       height="14.99"
       transform="translate(-11.52 286.07) rotate(-83.32)"
       id="rect132"
       style="stroke:#ffffff;fill:#ffffff" />
  </g>
  <g
     id="g906"
     transform="translate(-291.69536,56.864825)">
    <g
       id="g918">
      <circle
         style="fill:none;stroke:#ffffff;stroke-width:4;stroke-miterlimit:4;stroke-dasharray:none;stroke-opacity:1"
         id="path900"
         cx="372.15536"
         cy="23.545176"
         r="49.5" />
      <circle
         style="fill:none;stroke:#ffffff;stroke-width:4;stroke-miterlimit:4;stroke-dasharray:none;stroke-opacity:1"
         id="circle902"
         cx="372.15536"
         cy="23.545176"
         r="79" />
    </g>
  </g>
</svg>
