<?xml version="1.0" encoding="UTF-8" standalone="no"?>
<svg
   xmlns:dc="http://purl.org/dc/elements/1.1/"
   xmlns:cc="http://creativecommons.org/ns#"
   xmlns:rdf="http://www.w3.org/1999/02/22-rdf-syntax-ns#"
   xmlns:svg="http://www.w3.org/2000/svg"
   xmlns="http://www.w3.org/2000/svg"
   xmlns:sodipodi="http://sodipodi.sourceforge.net/DTD/sodipodi-0.dtd"
   xmlns:inkscape="http://www.inkscape.org/namespaces/inkscape"
   viewBox="0 0 499.99999 500"
   version="1.1"
   id="svg855"
   sodipodi:docname="social-facebook.svg"
   inkscape:version="1.0.2 (e86c8708, 2021-01-15)"
   width="500"
   height="500">
  <metadata
     id="metadata859">
    <rdf:RDF>
      <cc:Work
         rdf:about="">
        <dc:format>image/svg+xml</dc:format>
        <dc:type
           rdf:resource="http://purl.org/dc/dcmitype/StillImage" />
        <dc:title></dc:title>
      </cc:Work>
    </rdf:RDF>
  </metadata>
  <sodipodi:namedview
     pagecolor="#ffffff"
     bordercolor="#666666"
     borderopacity="1"
     objecttolerance="10"
     gridtolerance="10"
     guidetolerance="10"
     inkscape:pageopacity="0"
     inkscape:pageshadow="2"
     inkscape:window-width="1440"
     inkscape:window-height="847"
     id="namedview857"
     showgrid="false"
     inkscape:zoom="0.86556931"
     inkscape:cx="411.29"
     inkscape:cy="250"
     inkscape:window-x="0"
     inkscape:window-y="25"
     inkscape:window-maximized="1"
     inkscape:current-layer="svg855" />
  <defs
     id="defs841">
    <style
       id="style833">
      .cls-1 {
        fill: none;
      }

      .cls-2 {
        fill: #e00;
      }

      .cls-3 {
        fill: #fff;
        fill-rule: evenodd;
      }

      .cls-4 {
        clip-path: url(#clip-path);
      }

      .cls-5 {
        clip-path: url(#clip-path-2);
      }
    </style>
    <clipPath
       id="clip-path"
       transform="translate(0)">
      <rect
         class="cls-1"
         x="512.25"
         y="38.560001"
         width="309.07001"
         height="70"
         id="rect835" />
    </clipPath>
    <clipPath
       id="clip-path-2"
       transform="translate(0)">
      <rect
         class="cls-1"
         x="510.92001"
         y="36.98"
         width="311.66"
         height="73.059998"
         id="rect838" />
    </clipPath>
  </defs>
  <g
     id="red">
    <rect
       class="cls-2"
       width="500"
       height="500"
       id="rect843"
       x="0"
       y="0" />
  </g>
  <path
     class="cls-3"
     d="m 208,251.77 v 156.1 a 4.07,4.07 0 0 0 4.07,4.07 h 58 a 4.07,4.07 0 0 0 4.07,-4.07 V 249.22 h 42 a 4.06,4.06 0 0 0 4.05,-3.72 l 4,-47.8 a 4.07,4.07 0 0 0 -4,-4.41 h -46.1 V 159.38 A 14.39,14.39 0 0 1 288.48,145 h 32.39 a 4.07,4.07 0 0 0 4.07,-4.07 V 93.12 a 4.07,4.07 0 0 0 -4.07,-4.07 H 266.14 A 58.16,58.16 0 0 0 208,147.21 v 46.08 h -29 a 4.07,4.07 0 0 0 -4.06,4.07 v 47.8 a 4.06,4.06 0 0 0 4.06,4.06 h 29 z"
     id="path846" />
</svg>
