<svg xmlns="http://www.w3.org/2000/svg" viewBox="0 0 500 500"><defs><style>.cls-1{fill:#e00;}.cls-2{fill:#fff;}</style></defs><g id="red"><rect class="cls-1" width="500" height="500"/></g><g id="youtube"><path class="cls-2" d="M399.94,213.45a65.6,65.6,0,0,0-65.59-65.59H165.53a65.6,65.6,0,0,0-65.59,65.59v74.08a65.6,65.6,0,0,0,65.59,65.6H334.35a65.6,65.6,0,0,0,65.59-65.6Zm-92.83,39-75.5,37.22c-3,1.59-13.25-.54-13.25-3.9V209.38c0-3.4,10.38-5.53,13.33-3.85l72.14,39.17C306.85,246.43,310.16,250.79,307.11,252.44Z" transform="translate(0)"/></g></svg>