<?xml version="1.0" standalone="no"?>
<!DOCTYPE svg PUBLIC "-//W3C//DTD SVG 20010904//EN"
 "http://www.w3.org/TR/2001/REC-SVG-20010904/DTD/svg10.dtd">
<svg version="1.0" xmlns="http://www.w3.org/2000/svg"
 width="700.000000pt" height="700.000000pt" viewBox="0 0 700.000000 700.000000"
 preserveAspectRatio="xMidYMid meet">
<metadata>
Created by potrace 1.14, written by Peter Selinger 2001-2017
</metadata>
<g transform="translate(0.000000,700.000000) scale(0.100000,-0.100000)"
fill="#000000" stroke="none">
<path d="M3531 6595 c-1 -6 -13 -10 -28 -10 -16 1 -36 -3 -45 -7 -12 -6 -18
-5 -18 2 0 7 -6 8 -19 0 -14 -7 -22 -7 -27 1 -4 8 -9 7 -15 -2 -5 -8 -9 -9 -9
-4 0 15 -41 16 -59 2 -10 -8 -13 -8 -8 -1 7 13 -35 12 -65 -1 -9 -3 -25 -8
-35 -10 -10 -2 -18 -4 -18 -6 0 -1 -40 -4 -90 -5 -117 -5 -118 -5 -132 -16 -7
-5 -14 -5 -18 2 -4 7 -12 7 -25 0 -13 -7 -21 -7 -25 0 -4 6 -11 8 -16 4 -5 -3
-7 -8 -5 -12 4 -6 -15 -10 -66 -12 -10 -1 -18 -5 -18 -9 0 -5 -11 -7 -25 -6
-14 2 -29 -3 -33 -12 -5 -8 -11 -14 -13 -13 -9 4 -58 -23 -54 -30 2 -4 -7 -5
-20 -2 -14 2 -25 0 -25 -5 0 -9 -6 -11 -49 -15 -11 -1 -19 -6 -18 -11 1 -5
-13 -17 -31 -27 -19 -10 -41 -25 -51 -34 -10 -9 -21 -13 -24 -9 -4 3 -7 -1 -7
-11 0 -9 -4 -14 -10 -11 -5 3 -10 1 -10 -5 0 -6 -5 -8 -10 -5 -6 4 -9 3 -8 -2
4 -11 -39 -53 -46 -45 -3 3 -6 1 -6 -4 0 -20 -58 -76 -70 -69 -9 5 -11 4 -6
-3 4 -7 3 -12 -3 -12 -6 0 -8 -7 -5 -15 5 -11 2 -13 -12 -8 -12 4 -15 3 -10
-5 4 -7 2 -12 -3 -12 -6 0 -11 -5 -11 -12 0 -7 -12 -23 -27 -35 -14 -13 -23
-23 -19 -23 3 0 -14 -21 -39 -46 -25 -26 -45 -53 -45 -60 0 -8 -4 -14 -8 -14
-8 0 -48 -102 -43 -109 1 -2 -3 -8 -11 -12 -11 -8 -11 -10 0 -18 11 -6 10 -10
-4 -15 -9 -3 -14 -9 -11 -13 3 -3 0 -20 -7 -37 -7 -17 -11 -37 -9 -43 3 -7 1
-13 -4 -13 -5 0 -10 -15 -11 -32 -1 -18 -10 -39 -19 -45 -13 -10 -14 -13 -2
-13 8 0 10 -3 4 -8 -10 -7 -16 -24 -20 -57 -1 -11 -9 -19 -16 -17 -11 3 -11 1
-2 -9 7 -7 8 -18 3 -28 -12 -22 -24 -54 -25 -66 0 -5 -4 -16 -8 -22 -5 -7 -5
-13 -1 -13 3 0 1 -7 -6 -15 -7 -8 -10 -22 -6 -30 3 -9 2 -14 -3 -11 -5 3 -11
-1 -14 -8 -3 -8 -1 -17 6 -20 9 -3 8 -5 -1 -5 -7 -1 -10 -5 -7 -11 3 -5 1 -10
-5 -10 -7 0 -10 -6 -7 -14 3 -7 0 -19 -6 -25 -6 -6 -7 -11 -2 -11 5 0 0 -7
-11 -16 -10 -8 -13 -13 -6 -9 13 7 17 -7 5 -19 -8 -8 -9 -13 -12 -42 0 -8 -6
-12 -12 -8 -8 5 -8 1 0 -14 8 -15 7 -23 -5 -33 -10 -8 -12 -15 -5 -22 7 -7 5
-17 -7 -31 -16 -19 -16 -19 3 -13 19 7 19 6 2 -7 -13 -10 -15 -16 -7 -21 9 -6
9 -10 -1 -15 -10 -7 -10 -11 0 -24 8 -9 9 -16 4 -16 -5 0 -9 -9 -9 -19 0 -16
3 -18 16 -8 9 7 8 3 -3 -10 -12 -14 -15 -23 -8 -28 8 -4 8 -12 1 -25 -7 -13
-6 -19 5 -24 17 -6 20 -26 4 -26 -5 0 -7 5 -3 12 5 7 3 8 -5 4 -9 -6 -9 -12 2
-24 8 -10 13 -30 11 -47 -2 -22 -1 -26 6 -15 8 12 10 9 10 -11 0 -14 8 -34 18
-45 10 -10 19 -23 19 -27 2 -20 26 -67 34 -67 5 0 9 -7 9 -15 0 -8 5 -15 10
-15 6 0 10 -6 10 -14 0 -8 10 -22 22 -30 12 -9 19 -16 14 -16 -5 0 3 -11 18
-25 14 -13 26 -29 26 -35 0 -5 5 -10 11 -10 5 0 7 -4 4 -10 -3 -5 -1 -10 5
-10 6 0 8 -4 5 -10 -3 -5 -1 -10 4 -10 6 0 11 -9 11 -19 0 -10 7 -21 15 -25 8
-3 13 -11 10 -18 -2 -7 -6 -35 -9 -63 -3 -27 -10 -51 -16 -53 -5 -2 -7 -8 -4
-13 3 -6 0 -16 -6 -24 -10 -12 -10 -15 0 -15 10 0 10 -3 -1 -16 -14 -18 -17
-152 -3 -162 11 -8 16 -27 17 -64 1 -16 4 -28 7 -28 3 0 6 -19 8 -42 1 -23 8
-46 15 -50 9 -6 8 -8 -3 -8 -10 0 -11 -3 -4 -8 6 -4 10 -19 10 -34 -1 -14 1
-25 5 -22 4 2 9 -5 12 -16 3 -12 1 -18 -5 -14 -5 3 -3 -7 5 -22 8 -16 13 -37
12 -46 -2 -10 1 -18 5 -18 5 0 7 -9 5 -20 -2 -11 1 -20 6 -20 6 0 7 -4 4 -10
-3 -5 -1 -10 5 -10 6 0 8 -4 5 -10 -3 -5 -1 -10 5 -10 6 0 8 -4 5 -10 -3 -5
-1 -10 5 -10 6 0 9 -4 5 -9 -3 -5 1 -15 8 -23 7 -7 15 -17 16 -23 8 -26 46
-100 53 -103 4 -2 8 -10 8 -18 0 -8 4 -14 10 -14 5 0 7 -7 4 -15 -4 -8 -1 -15
5 -15 6 0 8 -7 5 -15 -4 -8 -2 -15 3 -15 5 0 10 -6 11 -12 1 -17 7 -39 16 -60
4 -9 5 -21 2 -27 -4 -5 -2 -12 4 -16 6 -4 8 -11 5 -16 -4 -5 0 -16 9 -24 8 -8
13 -24 11 -35 -2 -13 2 -20 11 -20 8 0 12 -5 9 -10 -3 -6 3 -23 14 -39 16 -22
18 -31 9 -34 -10 -4 -10 -6 0 -6 6 -1 12 -7 12 -15 0 -8 6 -17 13 -19 9 -4 8
-6 -2 -6 -9 -1 -6 -8 9 -21 13 -11 20 -20 15 -20 -4 0 -2 -7 5 -15 9 -11 9
-15 1 -15 -8 0 -9 -6 -3 -17 5 -10 8 -35 7 -55 0 -21 3 -34 9 -31 5 4 7 -3 4
-15 -4 -12 -3 -22 2 -22 8 0 23 -38 21 -52 -1 -5 3 -8 8 -8 5 0 13 -9 16 -20
3 -11 13 -20 21 -20 8 0 13 -3 11 -7 -3 -5 1 -14 9 -21 8 -7 14 -10 14 -7 0 3
16 -4 36 -14 20 -11 43 -17 52 -14 8 4 13 2 10 -3 -8 -11 49 -17 177 -17 132
0 205 6 205 17 0 5 7 3 15 -4 8 -7 15 -8 15 -3 0 5 10 9 23 9 12 1 46 3 75 7
45 4 56 2 72 -16 15 -16 17 -23 8 -29 -8 -4 -9 -8 -2 -8 6 0 11 -6 11 -12 1
-39 15 -184 18 -189 7 -11 -77 -89 -95 -89 -6 0 -10 -5 -10 -12 0 -6 -3 -9 -6
-6 -3 3 -17 -5 -31 -18 -14 -13 -32 -24 -38 -24 -7 0 -16 -7 -19 -16 -3 -8
-10 -12 -16 -9 -5 3 -10 -1 -10 -10 0 -9 -4 -14 -9 -10 -5 3 -15 0 -23 -7 -24
-23 -77 -58 -87 -58 -5 0 -12 -7 -15 -16 -3 -8 -10 -12 -16 -9 -5 3 -10 3 -10
-2 0 -9 -62 -47 -72 -45 -5 1 -8 -3 -8 -9 0 -5 -4 -7 -10 -4 -5 3 -10 -1 -10
-9 0 -9 -9 -16 -20 -16 -11 0 -20 -4 -20 -8 0 -8 -51 -36 -59 -32 -2 1 -7 -3
-10 -8 -8 -12 -139 -92 -151 -92 -6 0 -10 -4 -10 -10 0 -5 -7 -10 -15 -10 -8
0 -15 -4 -15 -10 0 -5 -6 -10 -12 -10 -7 0 -28 -14 -45 -31 -18 -16 -33 -27
-33 -24 0 3 -6 0 -14 -7 -8 -7 -11 -17 -8 -22 3 -5 0 -6 -6 -2 -6 3 -17 -1
-25 -9 -9 -8 -21 -15 -27 -15 -6 0 -8 -4 -5 -10 3 -5 -1 -10 -10 -10 -8 0 -18
-7 -21 -15 -4 -8 -12 -15 -20 -15 -8 0 -14 -4 -14 -10 0 -5 -7 -10 -15 -10 -9
0 -18 -7 -21 -15 -4 -8 -10 -12 -15 -9 -5 3 -9 0 -9 -6 0 -6 -4 -9 -8 -6 -5 3
-21 -6 -36 -19 -16 -14 -33 -22 -37 -19 -5 3 -9 1 -9 -5 0 -5 -12 -16 -27 -24
-104 -53 -116 -71 -50 -74 23 -1 69 -4 102 -7 33 -3 85 -8 115 -11 30 -3 119
-7 197 -9 79 -3 147 -8 153 -11 5 -3 10 -3 10 2 0 12 114 10 123 -2 5 -7 10
-7 15 0 4 6 45 10 92 10 47 0 93 3 102 8 9 4 20 2 23 -3 4 -6 12 -7 18 -3 6 4
29 8 52 9 64 4 148 12 300 30 116 13 225 31 380 60 25 5 95 20 138 29 12 3 36
8 52 11 44 9 60 12 60 14 0 1 11 4 25 7 39 7 55 11 55 13 0 1 7 3 15 5 8 2 26
6 40 9 40 8 224 57 240 63 8 3 20 7 25 8 6 1 12 3 15 4 6 3 25 8 55 15 11 2
20 5 20 6 0 2 14 5 53 14 12 3 27 8 32 11 13 8 58 18 87 19 11 1 19 4 16 9 -2
4 2 7 9 8 7 0 21 2 31 4 23 4 35 -24 16 -37 -11 -8 -11 -9 3 -5 25 8 30 -4 11
-26 -10 -11 -13 -17 -6 -14 14 8 46 -21 38 -34 -4 -5 -1 -9 4 -9 6 0 11 -9 11
-21 0 -11 4 -18 9 -15 4 3 6 -6 3 -21 -3 -18 -1 -24 7 -19 7 5 11 0 11 -13 0
-10 -3 -21 -7 -24 -5 -2 -3 -3 4 -1 18 4 24 -8 11 -23 -6 -7 -8 -16 -4 -20 3
-3 6 -1 6 6 0 7 4 10 10 6 5 -3 6 -13 3 -22 -5 -12 -3 -14 7 -8 8 5 11 4 6 -3
-3 -6 -2 -13 4 -17 6 -4 8 -11 5 -16 -4 -5 -1 -9 5 -9 6 0 9 -4 5 -9 -3 -5 -1
-12 5 -16 6 -4 8 -11 5 -16 -4 -5 -1 -9 4 -9 6 0 11 -8 11 -18 0 -10 6 -24 13
-31 10 -11 9 -13 -6 -8 -11 4 -16 3 -12 -3 3 -6 13 -10 20 -10 9 0 12 -6 9
-15 -4 -8 -11 -12 -17 -8 -6 3 -7 1 -3 -6 6 -9 11 -9 21 -1 10 9 13 5 11 -18
-1 -22 2 -28 12 -24 12 4 12 1 2 -17 -6 -13 -9 -25 -6 -29 3 -3 6 0 6 6 0 7 5
12 12 12 6 0 8 -3 5 -7 -4 -3 -2 -12 4 -20 6 -7 9 -22 6 -33 -3 -11 -1 -17 4
-14 10 6 29 -36 22 -48 -2 -5 1 -8 6 -8 6 0 11 -9 11 -21 0 -11 7 -27 16 -36
8 -9 13 -22 10 -29 -3 -8 -1 -14 4 -14 6 0 10 -7 10 -15 0 -8 4 -15 9 -15 6 0
8 -9 6 -19 -2 -11 3 -25 11 -32 12 -9 12 -15 2 -27 -9 -11 -9 -14 -1 -9 13 8
26 -8 30 -37 2 -11 9 -26 16 -35 6 -8 7 -12 2 -9 -6 4 -12 -2 -12 -13 -1 -10
3 -19 8 -19 6 0 7 5 4 10 -3 6 -1 10 6 10 6 0 9 -8 6 -20 -3 -11 -2 -20 1 -20
8 0 37 -59 37 -75 1 -5 6 -20 13 -31 6 -12 8 -24 5 -28 -3 -3 -1 -6 5 -6 18 0
14 -28 -5 -40 -15 -9 -14 -10 6 -4 16 4 21 3 17 -5 -4 -6 -3 -11 2 -11 6 0 5
-14 -2 -32 -16 -46 -26 -59 -38 -52 -7 4 -8 2 -4 -5 6 -9 11 -9 22 0 8 6 14 8
15 3 4 -46 45 -92 87 -96 15 -2 30 -7 34 -13 5 -6 8 -4 8 5 0 13 1 13 10 0 7
-11 10 -11 10 -2 0 7 4 11 9 7 5 -3 12 -1 16 5 4 6 10 8 15 5 4 -3 14 3 21 13
13 16 13 16 -6 2 -13 -10 -11 -4 7 18 23 27 27 41 26 87 -1 29 -6 52 -10 49
-4 -3 -8 2 -8 10 0 9 -7 16 -15 16 -8 0 -15 5 -15 11 0 5 -6 7 -12 3 -8 -5 -8
-2 1 10 12 15 12 17 0 14 -9 -2 -13 4 -11 17 2 15 1 17 -7 6 -5 -8 -7 -21 -3
-29 4 -10 1 -13 -7 -8 -7 5 -10 14 -7 22 3 8 1 14 -5 14 -5 0 -2 11 6 24 11
16 13 26 5 31 -6 3 -10 3 -9 -2 3 -19 -2 -33 -12 -33 -6 0 -9 9 -6 19 3 12 -1
22 -9 25 -8 3 -14 14 -14 25 0 11 -5 23 -11 27 -6 3 -9 19 -7 35 4 23 2 26 -9
18 -17 -15 -18 12 0 30 10 10 9 11 -5 6 -13 -5 -19 0 -25 22 -4 15 -6 34 -4
42 1 7 -2 10 -8 6 -10 -6 -16 7 -12 28 1 4 -6 15 -14 24 -9 8 -14 20 -12 27 2
6 -2 17 -10 24 -7 7 -13 18 -13 25 0 6 6 3 13 -8 12 -15 15 -16 22 -4 5 8 5
11 1 7 -12 -10 -48 32 -42 48 3 7 2 13 -2 13 -20 -3 -23 3 -11 18 8 9 10 14 4
11 -5 -3 -16 0 -23 8 -7 8 -10 14 -6 14 3 0 2 6 -5 13 -8 10 -7 17 2 27 9 10
9 11 -1 6 -7 -4 -14 0 -18 11 -3 10 -10 26 -15 37 -8 14 -7 16 2 10 7 -4 2 8
-11 26 -13 18 -19 30 -12 26 7 -4 12 -3 12 1 0 5 -9 14 -20 21 -12 7 -18 17
-15 22 3 5 1 12 -5 15 -8 5 -7 11 1 21 10 12 10 14 0 12 -11 -3 -57 92 -63
131 -2 9 -7 19 -11 22 -5 4 -10 18 -10 32 -1 14 -5 23 -9 20 -5 -2 -8 -1 -9 4
-3 29 -10 47 -25 64 -9 10 -14 19 -10 19 4 0 2 9 -4 19 -9 17 -7 19 10 16 11
-2 22 0 25 4 2 5 -3 8 -13 8 -32 0 -39 3 -39 16 -1 22 -8 41 -21 55 -7 8 -10
18 -7 23 4 5 1 9 -4 9 -6 0 -11 5 -11 11 0 5 5 7 10 4 6 -3 10 -1 10 4 0 6 3
10 8 10 22 -4 42 2 37 10 -3 6 3 10 12 9 18 0 230 82 320 124 27 12 50 22 53
23 16 3 121 58 125 66 4 5 15 9 26 9 10 0 19 3 19 8 0 4 21 18 48 32 26 13 51
30 55 37 5 8 12 11 18 8 5 -4 9 -1 9 4 0 6 4 11 10 11 6 0 18 8 28 17 10 10
32 30 48 44 63 57 61 45 59 295 -2 222 -7 274 -27 274 -5 0 -6 4 -3 10 3 6 -1
7 -9 4 -9 -3 -16 -1 -16 5 0 6 -7 8 -15 5 -8 -4 -15 -1 -15 5 0 6 -8 11 -17
11 -19 0 -79 18 -107 32 -14 7 -16 6 -10 -4 6 -10 5 -11 -8 -1 -8 7 -27 14
-42 15 -14 1 -26 5 -26 8 0 3 -16 6 -36 7 -20 1 -42 7 -50 14 -11 9 -14 8 -14
-2 0 -11 -2 -11 -10 1 -5 8 -10 11 -10 7 0 -4 -9 -3 -20 3 -15 8 -20 8 -20 -2
0 -6 -7 -3 -16 8 -8 10 -13 13 -9 7 8 -16 3 -16 -30 -1 -14 6 -25 15 -25 20 0
4 -3 7 -7 6 -17 -3 -43 15 -44 31 0 10 -2 12 -6 3 -5 -13 -43 52 -43 75 0 7
-3 13 -7 13 -5 0 -9 14 -10 31 -1 17 -7 37 -13 44 -8 10 -7 14 2 18 10 4 10 6
1 6 -7 1 -13 8 -13 16 0 8 -4 15 -9 15 -4 0 -7 11 -6 25 2 14 0 25 -5 25 -5 0
-7 8 -6 18 2 9 0 19 -4 22 -4 3 -10 25 -14 49 -3 24 -11 49 -16 56 -7 9 -8 14
-1 17 7 2 6 13 -4 31 -10 19 -11 27 -2 27 8 0 8 3 2 8 -6 4 -12 27 -14 52 -2
25 -5 48 -7 52 -2 4 0 9 4 12 5 3 8 15 7 28 -1 13 2 31 7 41 6 12 5 17 -4 17
-8 0 -9 3 -3 8 6 4 17 16 25 26 13 17 13 18 1 11 -9 -5 -5 5 7 22 12 17 22 38
22 47 0 9 5 16 10 16 6 0 10 11 10 24 0 14 5 28 10 31 6 4 8 11 5 16 -4 5 -1
9 4 9 6 0 11 5 11 11 0 5 -6 7 -12 4 -7 -4 -5 0 6 9 12 9 17 23 13 36 -3 11
-2 20 1 20 7 0 13 37 16 97 0 18 5 33 9 33 5 0 7 8 6 18 -1 9 0 19 1 22 5 13
10 48 12 78 1 18 5 35 10 38 4 3 4 13 -2 23 -5 10 -6 21 -2 25 3 4 8 28 9 54
2 26 6 54 10 62 3 8 7 29 8 45 2 17 4 32 5 35 2 3 4 10 5 15 2 6 3 12 4 15 1
3 4 32 7 65 2 33 9 61 14 63 5 2 6 10 3 19 -5 12 -3 14 8 8 12 -8 12 -6 0 8
-11 13 -11 17 -1 17 8 0 10 3 7 6 -3 4 -2 16 4 27 9 15 8 18 -2 12 -8 -6 -10
-4 -3 6 14 23 16 51 2 43 -7 -5 -8 -3 -3 6 11 18 17 72 7 66 -5 -3 -9 1 -9 9
0 8 5 15 11 15 7 0 7 3 1 8 -14 10 -39 55 -26 47 14 -8 14 1 1 25 -7 13 -7 21
0 25 8 5 8 11 0 20 -8 10 -8 15 0 20 8 5 8 11 -1 21 -6 8 -8 14 -4 14 4 0 2 7
-5 15 -9 10 -9 15 -1 15 6 0 9 10 7 23 -2 12 0 30 5 39 6 11 5 18 -4 21 -9 3
-9 7 2 20 11 14 11 17 0 17 -12 0 -12 2 0 9 10 6 10 10 1 16 -6 4 -9 13 -6 21
3 8 1 14 -4 14 -5 0 -7 9 -5 20 3 13 0 18 -7 14 -7 -5 -9 0 -6 14 4 13 0 23
-9 26 -12 5 -13 9 -4 20 7 8 8 17 4 19 -5 3 -10 20 -11 38 -1 18 -8 39 -15 48
-10 12 -9 13 3 6 12 -7 13 -6 3 7 -7 8 -10 18 -6 21 3 4 1 7 -6 7 -7 0 -11 6
-8 14 3 8 2 16 -3 18 -5 2 -11 17 -13 33 -7 47 -18 75 -29 75 -7 0 -6 5 1 13
8 11 6 18 -9 32 -11 10 -20 24 -20 32 0 7 -3 13 -7 13 -5 0 -9 14 -10 32 -1
17 -6 34 -10 37 -13 10 -34 55 -36 79 0 12 -5 22 -10 22 -4 0 -5 5 -2 10 3 6
1 10 -5 10 -6 0 -8 4 -5 10 7 11 -53 76 -66 73 -5 -2 -8 0 -8 5 4 22 -2 42
-11 37 -5 -3 -11 -1 -11 4 -1 6 -2 17 -3 24 -1 6 -7 11 -14 10 -7 -2 -12 2
-12 9 0 13 -68 78 -81 78 -5 0 -9 5 -9 11 0 13 -39 64 -48 64 -13 -1 -51 38
-46 46 3 5 -2 6 -10 3 -9 -4 -18 1 -22 10 -3 9 -17 16 -30 16 -13 0 -31 8 -41
19 -15 15 -52 33 -73 34 -3 0 -11 7 -18 14 -8 7 -18 11 -23 8 -5 -4 -9 1 -9
10 0 9 -4 13 -10 10 -5 -3 -10 -2 -10 3 0 5 -12 17 -26 27 -15 9 -23 12 -20 6
12 -18 -9 -12 -32 10 -13 11 -31 21 -42 22 -11 1 -20 4 -20 7 0 8 -56 31 -79
33 -12 1 -21 4 -21 8 0 4 -14 6 -31 5 -16 -1 -32 1 -35 6 -3 5 -10 6 -15 3 -5
-4 -9 -2 -9 3 0 5 -15 9 -32 10 -18 0 -34 5 -36 11 -2 6 -12 7 -28 1 -14 -6
-23 -6 -20 -1 3 5 -8 11 -24 13 -17 3 -30 0 -30 -5 0 -5 -6 -4 -13 2 -8 6 -17
8 -20 4 -4 -3 -7 -1 -7 4 0 6 -8 10 -17 9 -10 -2 -21 2 -25 8 -5 7 -8 6 -8 -4
0 -13 -1 -13 -10 0 -8 12 -10 12 -10 1 0 -11 -3 -11 -15 -1 -8 7 -15 8 -15 3
0 -6 -12 -8 -27 -6 -16 3 -36 5 -45 6 -10 1 -18 4 -18 8 0 4 -11 7 -25 7 -16
0 -22 -5 -18 -12 4 -6 -1 -5 -10 2 -9 8 -21 11 -27 7 -5 -3 -10 -1 -10 6 0 9
-3 9 -14 0 -11 -9 -15 -9 -19 1 -3 7 -6 8 -6 3z"/>
<path d="M4715 1551 c-3 -5 -2 -12 3 -15 5 -3 9 1 9 9 0 17 -3 19 -12 6z"/>
<path d="M4974 1396 c1 -8 5 -18 8 -22 4 -3 5 1 4 10 -1 8 -5 18 -8 22 -4 3
-5 -1 -4 -10z"/>
<path d="M5010 1341 c0 -6 4 -13 10 -16 6 -3 7 1 4 9 -7 18 -14 21 -14 7z"/>
<path d="M4810 1301 c0 -6 4 -13 10 -16 6 -3 7 1 4 9 -7 18 -14 21 -14 7z"/>
<path d="M5030 1246 c0 -8 4 -17 9 -20 5 -4 7 3 4 14 -6 23 -13 26 -13 6z"/>
<path d="M4889 1077 c6 -8 7 -18 3 -22 -4 -5 -1 -5 6 -1 10 6 10 11 1 22 -6 8
-14 14 -16 14 -3 0 0 -6 6 -13z"/>
<path d="M5110 1045 c0 -7 30 -13 34 -7 3 4 -4 9 -15 9 -10 1 -19 0 -19 -2z"/>
<path d="M5155 1011 c-3 -5 -2 -12 3 -15 5 -3 9 1 9 9 0 17 -3 19 -12 6z"/>
<path d="M4995 851 c-3 -5 -2 -12 3 -15 5 -3 9 1 9 9 0 17 -3 19 -12 6z"/>
<path d="M5040 759 c0 -5 5 -7 10 -4 6 3 10 8 10 11 0 2 -4 4 -10 4 -5 0 -10
-5 -10 -11z"/>
<path d="M4986 722 c-3 -5 1 -9 9 -9 8 0 12 4 9 9 -3 4 -7 8 -9 8 -2 0 -6 -4
-9 -8z"/>
<path d="M5266 662 c-3 -5 1 -9 9 -9 8 0 15 4 15 9 0 4 -4 8 -9 8 -6 0 -12 -4
-15 -8z"/>
<path d="M5073 605 c0 -8 4 -12 9 -9 5 3 6 10 3 15 -9 13 -12 11 -12 -6z"/>
<path d="M5096 582 c-3 -4 4 -9 15 -9 23 -2 25 3 4 10 -8 4 -16 3 -19 -1z"/>
<path d="M5119 513 c-13 -16 -12 -17 4 -4 16 13 21 21 13 21 -2 0 -10 -8 -17
-17z"/>
<path d="M5373 515 c0 -8 4 -12 9 -9 5 3 6 10 3 15 -9 13 -12 11 -12 -6z"/>
<path d="M5150 440 c0 -5 5 -10 11 -10 5 0 7 5 4 10 -3 6 -8 10 -11 10 -2 0
-4 -4 -4 -10z"/>
<path d="M5106 418 c3 -5 10 -6 15 -3 13 9 11 12 -6 12 -8 0 -12 -4 -9 -9z"/>
<path d="M5136 405 c-3 -8 -1 -15 4 -15 6 0 10 7 10 15 0 8 -2 15 -4 15 -2 0
-6 -7 -10 -15z"/>
<path d="M5415 311 c-3 -5 -2 -12 3 -15 5 -3 9 1 9 9 0 17 -3 19 -12 6z"/>
<path d="M5150 286 c0 -2 7 -7 16 -10 8 -3 12 -2 9 4 -6 10 -25 14 -25 6z"/>
</g>
</svg>
