<?xml version="1.0" standalone="no"?>
<!DOCTYPE svg PUBLIC "-//W3C//DTD SVG 20010904//EN"
 "http://www.w3.org/TR/2001/REC-SVG-20010904/DTD/svg10.dtd">
<svg version="1.0" xmlns="http://www.w3.org/2000/svg"
 width="700.000000pt" height="700.000000pt" viewBox="0 0 700.000000 700.000000"
 preserveAspectRatio="xMidYMid meet">
<metadata>
Created by potrace 1.14, written by Peter Selinger 2001-2017
</metadata>
<g transform="translate(0.000000,700.000000) scale(0.100000,-0.100000)"
fill="#000000" stroke="none">
<path d="M3351 6247 c-6 -6 -21 -12 -33 -14 -52 -8 -198 -111 -271 -193 -67
-75 -92 -123 -132 -260 -20 -69 -39 -128 -41 -132 -3 -5 -7 -50 -9 -100 -3
-94 13 -155 56 -218 9 -14 26 -45 38 -70 12 -25 43 -66 69 -92 47 -46 48 -46
111 -44 44 1 65 -2 68 -11 3 -8 23 -13 55 -13 50 0 59 5 109 66 9 10 29 31 45
45 57 51 134 149 183 234 79 135 112 399 62 494 -7 12 -9 25 -6 30 3 5 -1 15
-8 23 -7 7 -29 44 -48 82 -38 78 -120 166 -153 165 -12 -1 -35 3 -52 9 -22 7
-35 7 -43 -1z"/>
<path d="M5237 5519 c-10 -6 -42 -12 -72 -14 -29 -1 -73 -10 -97 -18 -24 -9
-140 -45 -258 -81 -118 -36 -361 -115 -540 -176 -179 -60 -332 -112 -340 -114
-80 -24 -565 -211 -667 -257 -24 -10 -45 -19 -49 -19 -3 0 -35 -13 -71 -30
-35 -16 -66 -30 -68 -30 -3 0 -239 -104 -360 -160 -413 -188 -891 -433 -1280
-655 -288 -165 -332 -194 -392 -253 -27 -26 -61 -56 -77 -67 -34 -24 -27 -51
15 -60 16 -4 29 -13 29 -20 0 -8 9 -21 21 -29 17 -11 22 -28 26 -78 2 -35 6
-69 9 -77 6 -20 47 -6 101 35 25 19 60 41 78 49 18 7 42 22 53 32 34 31 66 53
78 53 7 0 31 -10 54 -22 l41 -22 37 21 c75 44 662 333 677 333 2 0 41 17 87
38 46 21 146 65 223 96 77 32 154 64 170 71 17 7 154 63 305 123 285 114 321
129 355 143 29 12 337 125 360 132 11 3 74 24 140 47 66 23 161 54 210 70 140
44 410 128 520 161 55 16 123 37 150 46 28 8 57 16 65 18 8 2 119 33 245 68
127 36 275 77 329 91 55 14 104 30 110 36 5 5 11 35 12 67 2 32 4 72 5 88 4
45 -8 85 -31 110 -11 12 -20 35 -20 53 0 17 -9 47 -20 67 -11 20 -20 44 -20
55 0 11 -5 20 -10 20 -6 0 -15 11 -20 25 -15 38 -74 56 -113 34z"/>
<path d="M5795 4833 c-29 -6 -537 -172 -555 -182 -9 -5 -31 -12 -50 -16 -19
-4 -41 -11 -50 -16 -8 -5 -42 -17 -75 -28 -75 -24 -475 -160 -495 -168 -8 -4
-17 -7 -20 -8 -7 -2 -28 -10 -70 -24 -253 -86 -855 -323 -881 -347 -23 -21
-20 -26 53 -76 86 -58 521 -500 600 -610 32 -43 44 -46 90 -19 108 63 935 481
1173 593 55 26 206 97 335 157 129 61 235 111 236 111 1 0 6 12 12 28 23 67
-84 364 -182 507 -52 76 -87 104 -121 98z"/>
<path d="M6747 3894 c-3 -3 -279 -68 -328 -78 -13 -2 -130 -30 -259 -61 -129
-31 -242 -58 -250 -60 -422 -97 -1530 -440 -1530 -472 0 -8 24 -40 54 -71 60
-64 126 -160 146 -212 7 -19 21 -46 30 -60 10 -14 23 -42 31 -62 l13 -38 336
6 c184 3 394 7 465 9 l130 3 166 60 c264 96 570 192 894 282 121 34 230 68
243 76 12 8 22 24 23 37 0 12 3 31 5 42 3 11 7 62 8 114 3 103 -17 217 -58
331 -40 110 -62 147 -90 152 -14 3 -27 4 -29 2z"/>
<path d="M2877 3769 c-63 -17 -1122 -563 -1572 -809 -77 -42 -171 -94 -210
-115 -38 -21 -74 -41 -80 -45 -5 -4 -31 -19 -57 -34 -338 -187 -635 -366 -670
-403 -18 -20 -23 -36 -24 -86 -2 -56 17 -180 33 -217 3 -8 7 -17 8 -20 22 -89
75 -190 101 -196 30 -8 36 -6 274 96 113 48 282 115 375 149 94 35 193 71 220
81 78 29 98 34 91 21 -4 -6 -11 -11 -16 -11 -5 0 -35 -15 -67 -34 -32 -18 -89
-50 -126 -70 -37 -20 -84 -46 -105 -58 -20 -12 -127 -71 -237 -133 -110 -61
-237 -133 -282 -158 -45 -26 -85 -47 -89 -47 -4 0 -15 -6 -23 -14 -9 -7 -47
-31 -86 -51 -106 -58 -228 -141 -243 -166 -8 -12 -15 -40 -17 -62 -5 -58 37
-211 81 -303 42 -85 144 -204 175 -204 10 0 258 121 551 268 293 147 610 303
703 347 355 164 398 184 547 252 72 33 78 38 84 72 4 20 11 45 17 56 6 11 43
115 82 230 40 116 79 224 87 240 9 17 32 82 51 145 20 63 52 153 71 200 20 47
36 91 36 98 0 6 9 29 20 49 11 21 20 45 20 53 0 9 6 24 14 35 7 11 19 38 26
60 6 22 25 69 41 105 40 91 109 274 114 302 5 26 18 62 50 133 25 59 55 147
61 184 3 14 7 33 10 43 6 22 -5 27 -39 17z"/>
<path d="M3494 2888 c-4 -13 -19 -50 -34 -83 -15 -33 -34 -78 -41 -100 -6 -22
-32 -82 -56 -133 -24 -51 -51 -112 -59 -135 -8 -23 -23 -56 -33 -73 -10 -17
-24 -48 -31 -70 -7 -21 -25 -57 -39 -79 -14 -22 -89 -166 -167 -320 -305 -604
-288 -574 -323 -575 -8 0 -11 7 -8 19 6 23 -21 38 -29 17 -3 -7 -24 -19 -47
-26 -23 -6 -50 -16 -60 -21 -19 -10 -41 -3 -32 11 10 17 -6 38 -26 33 -10 -3
-19 0 -19 6 0 6 -9 11 -20 11 -11 0 -29 5 -39 11 -14 9 -25 8 -51 -5 -42 -20
-40 -21 -40 9 0 20 -5 25 -25 25 -16 0 -25 6 -25 15 0 8 -7 15 -15 15 -9 0
-18 7 -21 15 -4 9 -15 13 -30 11 -28 -5 -47 21 -49 68 -2 49 15 57 -298 -132
-135 -81 -141 -87 -145 -172 -10 -177 70 -385 179 -463 l37 -27 54 28 c29 16
69 38 88 49 58 33 250 137 330 180 41 22 131 70 200 106 69 36 177 93 240 127
63 33 359 182 658 331 l542 270 -5 37 c-4 20 -8 53 -10 72 -5 46 -20 114 -28
126 -3 6 -8 22 -11 36 -15 86 -126 367 -153 390 -7 6 -13 16 -13 24 0 22 -68
130 -111 176 -54 57 -180 185 -200 203 -21 20 -26 19 -35 -7z"/>
</g>
</svg>
